<svg xmlns="http://www.w3.org/2000/svg" viewBox="0 0 190.88 55.71"><defs><style>.cls-1{fill:#00a594;}.cls-2{fill:#774980;}.cls-3{fill:#ff6825;}</style></defs><title>logo-color</title><g id="Capa_2" data-name="Capa 2"><g id="texto"><path d="M63.63,32.37V13.28h6.09V27.34h7.62v5Z"/><path d="M95.63,32.37h6.9L95.12,13.28H87.47L80.05,32.37H87l.81-2.52h7.05ZM89.4,24.82l1.9-5.87,1.9,5.87Z"/><path d="M103.65,24.53V13.28h6.18v10.8c0,1.83,1.27,3.29,3.77,3.29s3.74-1.46,3.74-3.29V13.28h6.18V24.5c0,4.75-3.13,8.22-9.91,8.22S103.65,29.25,103.65,24.53Z"/><path d="M140.75,32.37l-7.41-9.68v9.68h-6.09V13.28h6.27l7,9v-9h6.09V32.37Z"/><path d="M148.81,22.84c0-5.9,4.76-9.88,11.06-9.88,5.27,0,7.93,2.92,9.13,5.55l-5.24,2.32a4.12,4.12,0,0,0-3.89-2.64A4.57,4.57,0,0,0,155,22.84c0,2.66,2,4.49,4.88,4.49a4,4,0,0,0,3.89-2.49L169,27.13a9.49,9.49,0,0,1-9.13,5.58C153.57,32.72,148.81,28.71,148.81,22.84Z"/><path d="M184.79,32.37V25.73h-7.2v6.65H171.5V13.28h6.09v7.41h7.2V13.28h6.09V32.37Z"/><path d="M63.63,39.93a2.43,2.43,0,0,1,2.5-2.52,2.16,2.16,0,0,1,1.84,1l-.5.28A1.64,1.64,0,0,0,66.13,38a2,2,0,0,0,0,4,1.65,1.65,0,0,0,1.34-.71l.51.28a2.19,2.19,0,0,1-1.85,1A2.43,2.43,0,0,1,63.63,39.93Z"/><path d="M79.25,39.93a2.42,2.42,0,1,1,2.41,2.52A2.37,2.37,0,0,1,79.25,39.93Zm4.21,0a1.8,1.8,0,1,0-1.79,2A1.81,1.81,0,0,0,83.45,39.93Z"/><path d="M99.68,42.44l-1.11-4.06-1.11,4.06h-.68l-1.43-5H96l1.12,4.19,1.15-4.19h.52L100,41.6l1.11-4.19h.7l-1.44,5Z"/><path d="M113.06,39.92a2.42,2.42,0,1,1,2.41,2.51A2.37,2.37,0,0,1,113.06,39.92Zm4.2,0a1.8,1.8,0,1,0-1.79,2A1.8,1.8,0,0,0,117.26,39.92Z"/><path d="M132.06,42.44l-1.27-2h-1v2h-.63v-5h2a1.47,1.47,0,0,1,1.58,1.52,1.4,1.4,0,0,1-1.31,1.46l1.36,2.05Zm0-3.51a.94.94,0,0,0-1-1h-1.32v1.92h1.32A1,1,0,0,0,132.11,38.93Z"/><path d="M147.1,42.44l-1.9-2.26-.5.57v1.69h-.62v-5h.62V40l2.22-2.59h.78l-2.09,2.38,2.28,2.64Z"/><path d="M159.15,42.44v-5h.62v5Z"/><path d="M174.6,42.44l-2.93-4v4H171v-5h.64l2.9,3.93V37.41h.63v5Z"/><path d="M186.47,39.92a2.42,2.42,0,0,1,2.5-2.51,2.31,2.31,0,0,1,1.89.9l-.48.31a1.79,1.79,0,0,0-1.4-.67,2,2,0,0,0,0,3.95,1.92,1.92,0,0,0,1.31-.52v-1H188.6v-.54h2.27V41.6a2.51,2.51,0,0,1-1.91.84A2.44,2.44,0,0,1,186.47,39.92Z"/><path class="cls-1" d="M49.69,43.7a.79.79,0,0,0-1,.21A26.26,26.26,0,0,1,11.1,47.84,26.83,26.83,0,0,1,7.3,43.9a.79.79,0,0,0-1-.2l-.13.07A.79.79,0,0,0,5.93,45a28.19,28.19,0,0,0,2.27,2.56A28,28,0,0,0,50,45a.79.79,0,0,0-.22-1.18Z"/><path class="cls-2" d="M31,.94a.79.79,0,0,0,.69.78A26.25,26.25,0,0,1,52.33,37.54a.79.79,0,0,0,.33,1l.14.08a.79.79,0,0,0,1.13-.4A28,28,0,0,0,31.85,0,.79.79,0,0,0,31,.79Z"/><path class="cls-3" d="M3.62,37.55A26.26,26.26,0,0,1,24.31,1.72.79.79,0,0,0,25,.94V.79A.79.79,0,0,0,24.12,0,28,28,0,0,0,2,38.21a.79.79,0,0,0,1.13.4l.12-.07A.79.79,0,0,0,3.62,37.55Z"/><path d="M44,11.39a.86.86,0,0,0-.75-.75c-6.44-.82-13.69,2.45-20.94,9.47l-.89.87H14.73a.86.86,0,0,0-.61.25L4.52,30.83a.86.86,0,0,0,.61,1.48H13.7L17.42,36,14.9,38.55a.86.86,0,0,0,1.22,1.22l2.52-2.52L22.36,41v8.57a.86.86,0,0,0,1.48.61l9.59-9.59a.86.86,0,0,0,.25-.61V33.22l.87-.89C41.57,25.08,44.85,17.84,44,11.39ZM15.09,22.72H19.8a68.75,68.75,0,0,0-6.26,7.86H7.22Zm.05,8.58c.23-.33.55-.8,1-1.36l3.7,3.7L18.65,34.8ZM21,34.86l3.7,3.7c-.56.41-1,.74-1.36,1L19.87,36ZM32,39.59l-7.86,7.86V41.14A68.75,68.75,0,0,0,32,34.88Zm.34-7.45a.86.86,0,0,0-.15.15,69.46,69.46,0,0,1-6,5.23l-3.87-3.87,4-4A.86.86,0,1,0,25,28.43l-4,4-3.87-3.87a69.37,69.37,0,0,1,5.17-6,.87.87,0,0,0,.24-.25c5.19-5.26,12.38-10.61,19.81-10C43,19.73,37.57,26.94,32.3,32.14Z"/><path d="M36.1,17.37a1.16,1.16,0,0,1,.83.35,1.22,1.22,0,0,1,0,1.71,1.16,1.16,0,0,1-1.65,0,1.22,1.22,0,0,1,0-1.71,1.16,1.16,0,0,1,.83-.35m0-1.76a2.91,2.91,0,0,0-2.08.87,3,3,0,0,0,0,4.18,2.92,2.92,0,0,0,4.15,0,3,3,0,0,0,0-4.18,2.91,2.91,0,0,0-2.08-.87Z"/></g></g></svg>